<svg class="main-svg" xmlns="http://www.w3.org/2000/svg" xmlns:xlink="http://www.w3.org/1999/xlink" width="1200" height="600" style="" viewBox="0 0 1200 600"><rect x="0" y="0" width="1200" height="600" style="fill: rgb(255, 255, 255); fill-opacity: 1;"/><defs id="defs-5cb22c"><g class="clips"><clipPath id="clip5cb22cxyplot" class="plotclip"><rect width="1035" height="417"/></clipPath><clipPath class="axesclip" id="clip5cb22cx"><rect x="85" y="0" width="1035" height="600"/></clipPath><clipPath class="axesclip" id="clip5cb22cy"><rect x="0" y="100" width="1200" height="417"/></clipPath><clipPath class="axesclip" id="clip5cb22cxy"><rect x="85" y="100" width="1035" height="417"/></clipPath></g><g class="gradients"/><g class="patterns"/></defs><g class="bglayer"/><g class="layer-below"><g class="imagelayer"/><g class="shapelayer"/></g><g class="cartesianlayer"><g class="subplot xy"><g class="layer-subplot"><g class="shapelayer"/><g class="imagelayer"/></g><g class="minor-gridlayer"><g class="x"/><g class="y"/></g><g class="gridlayer"><g class="x"><path class="xgrid crisp" transform="translate(149.25,0)" d="M0,100v417" style="stroke: rgb(211, 211, 211); stroke-opacity: 1; stroke-width: 1px;"/><path class="xgrid crisp" transform="translate(330.55,0)" d="M0,100v417" style="stroke: rgb(211, 211, 211); stroke-opacity: 1; stroke-width: 1px;"/><path class="xgrid crisp" transform="translate(511.85,0)" d="M0,100v417" style="stroke: rgb(211, 211, 211); stroke-opacity: 1; stroke-width: 1px;"/><path class="xgrid crisp" transform="translate(693.15,0)" d="M0,100v417" style="stroke: rgb(211, 211, 211); stroke-opacity: 1; stroke-width: 1px;"/><path class="xgrid crisp" transform="translate(874.45,0)" d="M0,100v417" style="stroke: rgb(211, 211, 211); stroke-opacity: 1; stroke-width: 1px;"/><path class="xgrid crisp" transform="translate(1055.75,0)" d="M0,100v417" style="stroke: rgb(211, 211, 211); stroke-opacity: 1; stroke-width: 1px;"/></g><g class="y"><path class="ygrid crisp" transform="translate(0,422.23)" d="M85,0h1035" style="stroke: rgb(211, 211, 211); stroke-opacity: 1; stroke-width: 1px;"/><path class="ygrid crisp" transform="translate(0,346.40999999999997)" d="M85,0h1035" style="stroke: rgb(211, 211, 211); stroke-opacity: 1; stroke-width: 1px;"/><path class="ygrid crisp" transform="translate(0,270.59000000000003)" d="M85,0h1035" style="stroke: rgb(211, 211, 211); stroke-opacity: 1; stroke-width: 1px;"/><path class="ygrid crisp" transform="translate(0,194.76999999999998)" d="M85,0h1035" style="stroke: rgb(211, 211, 211); stroke-opacity: 1; stroke-width: 1px;"/><path class="ygrid crisp" transform="translate(0,118.95)" d="M85,0h1035" style="stroke: rgb(211, 211, 211); stroke-opacity: 1; stroke-width: 1px;"/></g></g><g class="zerolinelayer"><path class="yzl zl crisp" transform="translate(0,498.05)" d="M85,0h1035" style="stroke: rgb(211, 211, 211); stroke-opacity: 1; stroke-width: 2px;"/></g><g class="layer-between"><g class="shapelayer"/><g class="imagelayer"/></g><path class="xlines-below"/><path class="ylines-below"/><g class="overlines-below"/><g class="xaxislayer-below"/><g class="yaxislayer-below"/><g class="overaxes-below"/><g class="overplot"><g class="xy" transform="translate(85,100)" clip-path="url(#clip5cb22cxyplot)"><g class="scatterlayer mlayer"><g class="trace scatter traced5829d" style="stroke-miterlimit: 2; opacity: 0.8;"><g class="fills"/><g class="errorbars"/><g class="lines"><path class="js-line" d="M64.25,18.95L608.15,18.95L789.45,94.77L970.75,246.41" style="vector-effect: none; fill: none; stroke: rgb(34, 139, 34); stroke-opacity: 1; stroke-width: 8px; opacity: 1;"/></g><g class="points"><path class="point" transform="translate(64.25,18.95)" d="M10,0A10,10 0 1,1 0,-10A10,10 0 0,1 10,0Z" style="opacity: 1; stroke-width: 0px; fill: rgb(34, 139, 34); fill-opacity: 1;"/><path class="point" transform="translate(245.55,18.95)" d="M10,0A10,10 0 1,1 0,-10A10,10 0 0,1 10,0Z" style="opacity: 1; stroke-width: 0px; fill: rgb(34, 139, 34); fill-opacity: 1;"/><path class="point" transform="translate(426.85,18.95)" d="M10,0A10,10 0 1,1 0,-10A10,10 0 0,1 10,0Z" style="opacity: 1; stroke-width: 0px; fill: rgb(34, 139, 34); fill-opacity: 1;"/><path class="point" transform="translate(608.15,18.95)" d="M10,0A10,10 0 1,1 0,-10A10,10 0 0,1 10,0Z" style="opacity: 1; stroke-width: 0px; fill: rgb(34, 139, 34); fill-opacity: 1;"/><path class="point" transform="translate(789.45,94.77)" d="M10,0A10,10 0 1,1 0,-10A10,10 0 0,1 10,0Z" style="opacity: 1; stroke-width: 0px; fill: rgb(34, 139, 34); fill-opacity: 1;"/><path class="point" transform="translate(970.75,246.41)" d="M10,0A10,10 0 1,1 0,-10A10,10 0 0,1 10,0Z" style="opacity: 1; stroke-width: 0px; fill: rgb(34, 139, 34); fill-opacity: 1;"/></g><g class="text"/></g><g class="trace scatter tracece9923" style="stroke-miterlimit: 2; opacity: 0.8;"><g class="fills"/><g class="errorbars"/><g class="lines"><path class="js-line" d="M64.25,322.23L608.15,322.23L789.45,398.05L970.75,398.05" style="vector-effect: none; fill: none; stroke: rgb(216, 27, 96); stroke-opacity: 1; stroke-dasharray: 40px, 40px; stroke-width: 8px; opacity: 1;"/></g><g class="points"><path class="point" transform="translate(64.25,322.23)" d="M10,0A10,10 0 1,1 0,-10A10,10 0 0,1 10,0Z" style="opacity: 1; stroke-width: 0px; fill: rgb(216, 27, 96); fill-opacity: 1;"/><path class="point" transform="translate(245.55,322.23)" d="M10,0A10,10 0 1,1 0,-10A10,10 0 0,1 10,0Z" style="opacity: 1; stroke-width: 0px; fill: rgb(216, 27, 96); fill-opacity: 1;"/><path class="point" transform="translate(426.85,322.23)" d="M10,0A10,10 0 1,1 0,-10A10,10 0 0,1 10,0Z" style="opacity: 1; stroke-width: 0px; fill: rgb(216, 27, 96); fill-opacity: 1;"/><path class="point" transform="translate(608.15,322.23)" d="M10,0A10,10 0 1,1 0,-10A10,10 0 0,1 10,0Z" style="opacity: 1; stroke-width: 0px; fill: rgb(216, 27, 96); fill-opacity: 1;"/><path class="point" transform="translate(789.45,398.05)" d="M10,0A10,10 0 1,1 0,-10A10,10 0 0,1 10,0Z" style="opacity: 1; stroke-width: 0px; fill: rgb(216, 27, 96); fill-opacity: 1;"/><path class="point" transform="translate(970.75,398.05)" d="M10,0A10,10 0 1,1 0,-10A10,10 0 0,1 10,0Z" style="opacity: 1; stroke-width: 0px; fill: rgb(216, 27, 96); fill-opacity: 1;"/></g><g class="text"/></g><g class="trace scatter traceb0517b" style="stroke-miterlimit: 2; opacity: 0.8;"><g class="fills"/><g class="errorbars"/><g class="lines"><path class="js-line" d="M64.25,398.05L970.75,398.05" style="vector-effect: none; fill: none; stroke: rgb(255, 140, 0); stroke-opacity: 1; stroke-dasharray: 24px, 24px; stroke-width: 8px; opacity: 1;"/></g><g class="points"><path class="point" transform="translate(64.25,398.05)" d="M10,0A10,10 0 1,1 0,-10A10,10 0 0,1 10,0Z" style="opacity: 1; stroke-width: 0px; fill: rgb(255, 140, 0); fill-opacity: 1;"/><path class="point" transform="translate(245.55,398.05)" d="M10,0A10,10 0 1,1 0,-10A10,10 0 0,1 10,0Z" style="opacity: 1; stroke-width: 0px; fill: rgb(255, 140, 0); fill-opacity: 1;"/><path class="point" transform="translate(426.85,398.05)" d="M10,0A10,10 0 1,1 0,-10A10,10 0 0,1 10,0Z" style="opacity: 1; stroke-width: 0px; fill: rgb(255, 140, 0); fill-opacity: 1;"/><path class="point" transform="translate(608.15,398.05)" d="M10,0A10,10 0 1,1 0,-10A10,10 0 0,1 10,0Z" style="opacity: 1; stroke-width: 0px; fill: rgb(255, 140, 0); fill-opacity: 1;"/><path class="point" transform="translate(789.45,398.05)" d="M10,0A10,10 0 1,1 0,-10A10,10 0 0,1 10,0Z" style="opacity: 1; stroke-width: 0px; fill: rgb(255, 140, 0); fill-opacity: 1;"/><path class="point" transform="translate(970.75,398.05)" d="M10,0A10,10 0 1,1 0,-10A10,10 0 0,1 10,0Z" style="opacity: 1; stroke-width: 0px; fill: rgb(255, 140, 0); fill-opacity: 1;"/></g><g class="text"/></g></g></g></g><path class="xlines-above crisp" d="M0,0" style="fill: none;"/><path class="ylines-above crisp" d="M0,0" style="fill: none;"/><g class="overlines-above"/><g class="xaxislayer-above"><g class="xtick"><text text-anchor="middle" x="0" y="546" transform="translate(149.25,0)" style="font-family: 'Times New Roman'; font-size: 28px; fill: rgb(0, 0, 0); fill-opacity: 1; white-space: pre; opacity: 1;"><tspan class="line" dy="0em" x="0" y="546">Open</tspan><tspan class="line" dy="1.3em" x="0" y="546">oven</tspan></text></g><g class="xtick"><text text-anchor="middle" x="0" y="546" transform="translate(330.55,0)" style="font-family: 'Times New Roman'; font-size: 28px; fill: rgb(0, 0, 0); fill-opacity: 1; white-space: pre; opacity: 1;"><tspan class="line" dy="0em" x="0" y="546">Nav to</tspan><tspan class="line" dy="1.3em" x="0" y="546">object</tspan></text></g><g class="xtick"><text text-anchor="middle" x="0" y="546" transform="translate(511.85,0)" style="font-family: 'Times New Roman'; font-size: 28px; fill: rgb(0, 0, 0); fill-opacity: 1; white-space: pre; opacity: 1;"><tspan class="line" dy="0em" x="0" y="546">Pick</tspan><tspan class="line" dy="1.3em" x="0" y="546">object</tspan></text></g><g class="xtick"><text text-anchor="middle" x="0" y="546" transform="translate(693.15,0)" style="font-family: 'Times New Roman'; font-size: 28px; fill: rgb(0, 0, 0); fill-opacity: 1; white-space: pre; opacity: 1;"><tspan class="line" dy="0em" x="0" y="546">Nav to</tspan><tspan class="line" dy="1.3em" x="0" y="546">oven</tspan></text></g><g class="xtick"><text text-anchor="middle" x="0" y="546" transform="translate(874.45,0)" style="font-family: 'Times New Roman'; font-size: 28px; fill: rgb(0, 0, 0); fill-opacity: 1; white-space: pre; opacity: 1;"><tspan class="line" dy="0em" x="0" y="546">Place in</tspan><tspan class="line" dy="1.3em" x="0" y="546">oven</tspan></text></g><g class="xtick"><text text-anchor="middle" x="0" y="546" transform="translate(1055.75,0)" style="font-family: 'Times New Roman'; font-size: 28px; fill: rgb(0, 0, 0); fill-opacity: 1; white-space: pre; opacity: 1;"><tspan class="line" dy="0em" x="0" y="546">Close</tspan><tspan class="line" dy="1.3em" x="0" y="546">oven</tspan></text></g></g><g class="yaxislayer-above"><g class="ytick"><text text-anchor="end" x="84" y="9.799999999999999" transform="translate(0,498.05)" style="font-family: 'Times New Roman'; font-size: 28px; fill: rgb(0, 0, 0); fill-opacity: 1; white-space: pre; opacity: 1;">0</text></g><g class="ytick"><text text-anchor="end" x="84" y="9.799999999999999" style="font-family: 'Times New Roman'; font-size: 28px; fill: rgb(0, 0, 0); fill-opacity: 1; white-space: pre; opacity: 1;" transform="translate(0,422.23)">0.2</text></g><g class="ytick"><text text-anchor="end" x="84" y="9.799999999999999" style="font-family: 'Times New Roman'; font-size: 28px; fill: rgb(0, 0, 0); fill-opacity: 1; white-space: pre; opacity: 1;" transform="translate(0,346.40999999999997)">0.4</text></g><g class="ytick"><text text-anchor="end" x="84" y="9.799999999999999" style="font-family: 'Times New Roman'; font-size: 28px; fill: rgb(0, 0, 0); fill-opacity: 1; white-space: pre; opacity: 1;" transform="translate(0,270.59000000000003)">0.6</text></g><g class="ytick"><text text-anchor="end" x="84" y="9.799999999999999" style="font-family: 'Times New Roman'; font-size: 28px; fill: rgb(0, 0, 0); fill-opacity: 1; white-space: pre; opacity: 1;" transform="translate(0,194.76999999999998)">0.8</text></g><g class="ytick"><text text-anchor="end" x="84" y="9.799999999999999" style="font-family: 'Times New Roman'; font-size: 28px; fill: rgb(0, 0, 0); fill-opacity: 1; white-space: pre; opacity: 1;" transform="translate(0,118.95)">1</text></g></g><g class="overaxes-above"/></g></g><g class="polarlayer"/><g class="smithlayer"/><g class="ternarylayer"/><g class="geolayer"/><g class="funnelarealayer"/><g class="pielayer"/><g class="iciclelayer"/><g class="treemaplayer"/><g class="sunburstlayer"/><g class="glimages"/><defs id="topdefs-5cb22c"><g class="clips"/></defs><g class="layer-above"><g class="imagelayer"/><g class="shapelayer"/></g><g class="infolayer"><g class="g-gtitle"><text class="gtitle" x="600" y="60" text-anchor="middle" dy="0.7em" style="opacity: 1; font-family: 'Times New Roman'; font-size: 32px; fill: rgb(0, 0, 0); fill-opacity: 1; white-space: pre;">Load in Oven</text></g><g class="g-xtitle"/><g class="g-ytitle" transform="translate(5.7001953125,0)"><text class="ytitle" transform="rotate(-90,23.299999999999997,308.5)" x="23.299999999999997" y="308.5" text-anchor="middle" style="opacity: 1; font-family: 'Times New Roman'; font-size: 32px; fill: rgb(0, 0, 0); fill-opacity: 1; white-space: pre;">Success Rate</text></g></g></svg>